TITLE ""
FILE "DISC1Track31.mp3" MP3
  TRACK 01 AUDIO
    TITLE "DISC1Track31_01"
    INDEX 01 00:00:00
  TRACK 02 AUDIO
    TITLE "DISC1Track31_02"
    INDEX 01 00:02:64
  TRACK 03 AUDIO
    TITLE "DISC1Track31_03"
    INDEX 01 00:03:11
  TRACK 04 AUDIO
    TITLE "DISC1Track31_04"
    INDEX 01 00:07:10
  TRACK 05 AUDIO
    TITLE "DISC1Track31_05"
    INDEX 01 00:10:56
  TRACK 06 AUDIO
    TITLE "DISC1Track31_06"
    INDEX 01 00:14:18
  TRACK 07 AUDIO
    TITLE "DISC1Track31_07"
    INDEX 01 00:14:42
  TRACK 08 AUDIO
    TITLE "DISC1Track31_08"
    INDEX 01 00:18:14
  TRACK 09 AUDIO
    TITLE "DISC1Track31_09"
    INDEX 01 00:21:38
  TRACK 10 AUDIO
    TITLE "DISC1Track31_10"
    INDEX 01 00:24:56
  TRACK 11 AUDIO
    TITLE "DISC1Track31_11"
    INDEX 01 00:25:02
  TRACK 12 AUDIO
    TITLE "DISC1Track31_12"
    INDEX 01 00:27:01
  TRACK 13 AUDIO
    TITLE "DISC1Track31_13"
    INDEX 01 00:28:65
  TRACK 14 AUDIO
    TITLE "DISC1Track31_14"
    INDEX 01 00:30:49
  TRACK 15 AUDIO
    TITLE "DISC1Track31_15"
    INDEX 01 00:30:74
  TRACK 16 AUDIO
    TITLE "DISC1Track31_16"
    INDEX 01 00:34:31
  TRACK 17 AUDIO
    TITLE "DISC1Track31_17"
    INDEX 01 00:37:49
  TRACK 18 AUDIO
    TITLE "DISC1Track31_18"
    INDEX 01 00:40:51
  TRACK 19 AUDIO
    TITLE "DISC1Track31_19"
    INDEX 01 00:41:05
  TRACK 20 AUDIO
    TITLE "DISC1Track31_20"
    INDEX 01 00:45:21
  TRACK 21 AUDIO
    TITLE "DISC1Track31_21"
    INDEX 01 00:48:52
  TRACK 22 AUDIO
    TITLE "DISC1Track31_22"
    INDEX 01 00:52:09
  TRACK 23 AUDIO
    TITLE "DISC1Track31_23"
    INDEX 01 00:52:33
  TRACK 24 AUDIO
    TITLE "DISC1Track31_24"
    INDEX 01 00:56:15
  TRACK 25 AUDIO
    TITLE "DISC1Track31_25"
    INDEX 01 00:59:46
  TRACK 26 AUDIO
    TITLE "DISC1Track31_26"
    INDEX 01 01:02:68
  TRACK 27 AUDIO
    TITLE "DISC1Track31_27"
    INDEX 01 01:03:19
  TRACK 28 AUDIO
    TITLE "DISC1Track31_28"
    INDEX 01 01:06:33
  TRACK 29 AUDIO
    TITLE "DISC1Track31_29"
    INDEX 01 01:09:37
  TRACK 30 AUDIO
    TITLE "DISC1Track31_30"
    INDEX 01 01:12:31
  TRACK 31 AUDIO
    TITLE "DISC1Track31_31"
    INDEX 01 01:12:53
  TRACK 32 AUDIO
    TITLE "DISC1Track31_32"
    INDEX 01 01:14:50
  TRACK 33 AUDIO
    TITLE "DISC1Track31_33"
    INDEX 01 01:16:64
  TRACK 34 AUDIO
    TITLE "DISC1Track31_34"
    INDEX 01 01:18:67
  TRACK 35 AUDIO
    TITLE "DISC1Track31_35"
    INDEX 01 01:19:10
  TRACK 36 AUDIO
    TITLE "DISC1Track31_36"
    INDEX 01 01:22:28
  TRACK 37 AUDIO
    TITLE "DISC1Track31_37"
    INDEX 01 01:25:16
  TRACK 38 AUDIO
    TITLE "DISC1Track31_38"
    INDEX 01 01:28:01
  TRACK 39 AUDIO
    TITLE "DISC1Track31_39"
    INDEX 01 01:28:24
  TRACK 40 AUDIO
    TITLE "DISC1Track31_40"
    INDEX 01 01:32:22
  TRACK 41 AUDIO
    TITLE "DISC1Track31_41"
    INDEX 01 01:35:72
  TRACK 42 AUDIO
    TITLE "DISC1Track31_42"
    INDEX 01 01:39:36
  TRACK 43 AUDIO
    TITLE "DISC1Track31_43"
    INDEX 01 01:39:64
  TRACK 44 AUDIO
    TITLE "DISC1Track31_44"
    INDEX 01 01:43:36
  TRACK 45 AUDIO
    TITLE "DISC1Track31_45"
    INDEX 01 01:46:66
  TRACK 46 AUDIO
    TITLE "DISC1Track31_46"
    INDEX 01 01:50:16
  TRACK 47 AUDIO
    TITLE "DISC1Track31_47"
    INDEX 01 01:50:36
  TRACK 48 AUDIO
    TITLE "DISC1Track31_48"
    INDEX 01 01:54:04
  TRACK 49 AUDIO
    TITLE "DISC1Track31_49"
    INDEX 01 01:56:62
  TRACK 50 AUDIO
    TITLE "DISC1Track31_50"
    INDEX 01 01:59:39
